<svg xmlns="http://www.w3.org/2000/svg" width="380" height="220" viewBox="0 0 380 220">
  <rect width="380" height="220" rx="12" fill="#0d1117"/>
  <rect x="0.5" y="0.5" width="379" height="219" rx="11.5" fill="none" stroke="#30363d" stroke-width="1"/>

  <text x="20" y="32" font-family="Segoe UI,sans-serif" font-size="15" font-weight="600" fill="#e6edf3">NeetCode Progress</text>
  <line x1="20" y1="44" x2="360" y2="44" stroke="#21262d" stroke-width="1"/>

  <circle cx="68" cy="118" r="40" fill="none" stroke="#21262d" stroke-width="6"/>
  <circle cx="68" cy="118" r="40" fill="none" stroke="#58a6ff" stroke-width="6"
    stroke-linecap="round"
    stroke-dasharray="37.36 251.33"
    transform="rotate(-90 68 118)"/>
  <text x="68" y="114" text-anchor="middle" font-family="Segoe UI,sans-serif" font-size="28" font-weight="700" fill="#e6edf3">22</text>
  <text x="68" y="130" text-anchor="middle" font-family="Segoe UI,sans-serif" font-size="10" fill="#6e7681">/ 148 solved</text>

  <text x="148" y="72" font-family="Segoe UI,sans-serif" font-size="12" fill="#8b949e">Easy</text>
  <text x="355" y="72" text-anchor="end" font-family="Segoe UI,sans-serif" font-size="12" font-weight="600" fill="#3fb950">6/28</text>
  <g transform="translate(148,78)"><rect width="200" height="8" rx="4" fill="#21262d"/><rect width="42.9" height="8" rx="4" fill="#3fb950"/></g>

  <text x="148" y="110" font-family="Segoe UI,sans-serif" font-size="12" fill="#8b949e">Medium</text>
  <text x="355" y="110" text-anchor="end" font-family="Segoe UI,sans-serif" font-size="12" font-weight="600" fill="#e3b341">13/99</text>
  <g transform="translate(148,116)"><rect width="200" height="8" rx="4" fill="#21262d"/><rect width="26.3" height="8" rx="4" fill="#e3b341"/></g>

  <text x="148" y="148" font-family="Segoe UI,sans-serif" font-size="12" fill="#8b949e">Hard</text>
  <text x="355" y="148" text-anchor="end" font-family="Segoe UI,sans-serif" font-size="12" font-weight="600" fill="#f85149">3/21</text>
  <g transform="translate(148,154)"><rect width="200" height="8" rx="4" fill="#21262d"/><rect width="28.6" height="8" rx="4" fill="#f85149"/></g>

  <text x="20" y="207" font-family="Segoe UI,sans-serif" font-size="10" fill="#484f58">auto-updated by GitHub Actions</text>
</svg>